<?xml version="1.0" standalone="no"?>
<!DOCTYPE svg PUBLIC "-//W3C//DTD SVG 20010904//EN"
 "http://www.w3.org/TR/2001/REC-SVG-20010904/DTD/svg10.dtd">
<svg version="1.0" xmlns="http://www.w3.org/2000/svg"
 width="260.000000pt" height="260.000000pt" viewBox="0 0 260.000000 260.000000"
 preserveAspectRatio="xMidYMid meet">
<metadata>
Created by potrace 1.14, written by Peter Selinger 2001-2017
</metadata>
<g transform="translate(0.000000,260.000000) scale(0.100000,-0.100000)"
fill="#000000" stroke="none">
<path d="M1189 2276 c-2 -2 -31 -6 -64 -10 -244 -24 -529 -159 -715 -338 -149
-142 -277 -347 -346 -553 -24 -72 -27 -95 -27 -225 -1 -141 6 -277 18 -352 3
-20 30 -85 59 -145 30 -59 57 -118 60 -129 4 -12 17 -25 29 -29 12 -4 27 -8
32 -10 47 -15 165 -35 235 -39 l85 -5 -75 14 c-41 8 -93 17 -115 20 -56 7
-146 32 -158 44 -5 5 -18 34 -29 63 -157 444 -56 883 283 1229 83 85 134 122
252 183 126 66 279 117 396 133 98 14 300 7 381 -12 14 -3 34 -8 45 -9 47 -8
185 -61 255 -98 226 -121 399 -295 512 -513 94 -183 128 -328 123 -525 -2 -63
-5 -126 -8 -140 -14 -78 -55 -207 -67 -215 -5 -3 -19 -1 -33 4 -44 17 -91 23
-207 26 -104 3 -152 -1 -245 -19 -100 -20 -103 -19 -110 5 -5 13 -7 38 -7 55
1 18 -15 63 -39 110 -23 45 -38 86 -35 98 6 24 -6 48 -56 107 -25 30 -36 52
-32 63 6 16 -12 44 -70 110 -14 16 -26 34 -26 41 0 7 -27 34 -60 60 -33 26
-60 51 -60 54 0 3 -11 18 -24 32 -18 20 -23 36 -22 72 1 43 3 47 26 47 14 0
42 -9 62 -20 22 -12 40 -16 43 -10 10 16 22 11 28 -11 4 -14 10 -18 19 -13 26
17 226 13 286 -5 63 -20 118 -45 145 -69 16 -14 17 -13 17 9 0 79 -99 192
-218 251 -64 32 -71 33 -182 32 -98 -1 -126 -5 -190 -28 -41 -15 -88 -31 -105
-36 l-30 -10 25 20 c63 49 130 78 203 87 28 4 37 10 37 24 0 16 3 17 37 5 33
-11 41 -10 82 9 25 12 99 40 163 61 72 23 113 41 105 46 -14 10 -132 48 -167
54 -14 3 -74 7 -133 8 -107 3 -227 -15 -227 -35 0 -5 -10 -9 -21 -9 -12 0 -37
-16 -56 -36 -66 -70 -179 -254 -165 -269 4 -4 -2 -5 -13 -2 -73 21 -151 38
-199 43 -48 5 -56 4 -56 -10 0 -13 -4 -15 -19 -6 -15 8 -35 1 -98 -34 -124
-71 -199 -153 -242 -267 -19 -49 -27 -89 -17 -89 2 0 19 15 39 34 38 36 138
76 242 97 33 7 62 13 65 14 84 22 90 26 90 54 0 24 3 28 20 24 14 -4 30 3 45
17 37 35 40 19 5 -26 -16 -21 -37 -48 -45 -59 -19 -25 -19 -44 1 -52 13 -5 12
-9 -7 -29 -19 -20 -22 -34 -21 -103 1 -43 6 -100 13 -127 6 -27 12 -57 14 -67
6 -29 75 -165 91 -177 11 -10 12 -7 6 17 -26 100 21 279 96 365 l32 35 -20 26
-20 26 20 6 c11 4 18 11 14 16 -3 5 -8 33 -10 62 -5 51 -5 52 11 25 9 -16 23
-29 33 -29 9 -1 32 -2 51 -3 30 -1 40 -9 78 -61 57 -79 80 -122 94 -180 6 -26
20 -54 30 -64 18 -16 26 -43 36 -111 3 -19 10 -41 17 -49 6 -8 10 -43 8 -86
-2 -48 2 -81 12 -99 12 -25 12 -35 0 -75 -7 -25 -14 -47 -14 -47 0 -1 -17 -5
-37 -9 -21 -5 -42 -9 -48 -11 -108 -27 -185 -44 -202 -44 -13 0 -23 -4 -23 -8
0 -4 -9 -8 -21 -9 -11 -1 -44 -6 -72 -12 -49 -10 -85 -15 -173 -26 -48 -7 -56
-15 -16 -16 18 -1 46 -3 62 -4 17 -1 40 -3 52 -4 29 -1 19 -10 -18 -15 -16 -2
-38 -7 -48 -12 -12 -4 -17 -4 -13 2 3 6 -9 8 -31 5 l-37 -5 30 -7 c28 -7 27
-8 -10 -7 -22 0 -42 -1 -45 -2 -7 -3 -38 -8 -75 -12 -17 -2 -35 -6 -40 -9 -6
-2 -38 -4 -72 -4 -34 0 -60 -2 -57 -6 5 -8 459 -4 504 4 14 3 48 8 75 11 28 4
61 9 75 11 76 15 96 19 164 31 16 3 32 7 36 9 4 3 22 7 41 9 19 3 43 7 54 10
207 48 318 70 420 82 55 6 209 6 260 -1 43 -6 139 -35 197 -60 13 -5 23 2 38
27 17 27 48 113 56 153 1 6 7 37 15 70 17 81 17 83 26 140 9 64 9 304 -1 373
-47 342 -253 658 -566 867 -75 50 -231 136 -243 133 -1 0 -48 14 -105 32 -57
18 -106 30 -109 27 -3 -3 -17 -1 -32 5 -23 9 -303 22 -312 14z"/>
</g>
</svg>
