 <svg version="1.0" xmlns="http://www.w3.org/2000/svg"  width="300.000000pt" height="18.000000pt" viewBox="0 0 300.000000 18.000000"  preserveAspectRatio="xMidYMid meet">  <g transform="translate(0.000000,18.000000) scale(0.100000,-0.100000)" fill="#000000" stroke="none"> <path d="M523 173 c15 -2 37 -2 50 0 12 2 0 4 -28 4 -27 0 -38 -2 -22 -4z"/> <path d="M758 173 c7 -3 16 -2 19 1 4 3 -2 6 -13 5 -11 0 -14 -3 -6 -6z"/> <path d="M2308 173 c7 -3 16 -2 19 1 4 3 -2 6 -13 5 -11 0 -14 -3 -6 -6z"/> <path d="M2498 173 c6 -2 18 -2 25 0 6 3 1 5 -13 5 -14 0 -19 -2 -12 -5z"/> <path d="M2548 173 c6 -2 18 -2 25 0 6 3 1 5 -13 5 -14 0 -19 -2 -12 -5z"/> <path d="M153 162 c-12 -2 -27 -10 -33 -17 -10 -12 -6 -18 19 -32 35 -20 40 -33 12 -33 -21 0 -45 -25 -37 -38 7 -12 66 -21 66 -11 0 4 -7 9 -15 13 -8 3 -15 10 -15 16 0 5 7 10 15 10 8 0 15 5 15 10 0 6 4 10 10 10 5 0 7 -6 4 -14 -3 -8 -1 -17 5 -20 6 -4 10 9 9 34 0 22 -5 40 -10 40 -6 0 -8 -7 -4 -15 7 -18 4 -18 -29 -3 l-26 12 23 17 c26 20 23 26 -9 21z"/> <path d="M2838 142 l23 -18 -26 -12 c-33 -15 -36 -15 -29 3 4 8 1 15 -5 15 -6 0 -11 -7 -11 -16 0 -11 -8 -15 -27 -13 -76 6 -1163 -2 -1163 -8 0 -5 268 -7 595 -6 591 2 595 2 595 -18 0 -12 4 -17 11 -14 6 4 8 13 5 21 -3 8 0 14 7 14 7 0 27 9 45 20 28 17 32 23 22 35 -7 8 -24 15 -39 15 l-26 0 23 -18z"/> <path d="M224 131 c0 -11 5 -17 13 -14 7 3 13 11 13 19 0 8 -6 14 -13 14 -7 0 -13 -8 -13 -19z"/> <path d="M2757 143 c-11 -10 -8 -20 6 -26 8 -3 13 3 13 14 0 19 -8 24 -19 12z"/> <path d="M276 132 c-3 -6 -1 -14 5 -17 15 -10 25 3 12 16 -7 7 -13 7 -17 1z"/> <path d="M1500 130 c0 -5 7 -10 15 -10 8 0 15 5 15 10 0 6 -7 10 -15 10 -8 0 -15 -4 -15 -10z"/> <path d="M2706 133 c-11 -11 -6 -23 9 -23 8 0 15 4 15 9 0 13 -16 22 -24 14z"/> <path d="M50 105 l-25 -13 28 -11 c36 -14 48 -13 69 3 16 12 16 14 -8 24 -31 15 -33 15 -64 -3z"/> <path d="M2883 107 c-22 -12 -22 -13 -3 -25 24 -15 31 -15 67 -1 l28 11 -25 13 c-31 17 -39 18 -67 2z"/> <path d="M235 100 c-14 -6 -15 -9 -5 -10 60 -3 1204 1 1208 5 3 3 -256 5 -576 5 -319 0 -586 2 -594 4 -7 3 -22 1 -33 -4z"/> <path d="M1466 103 c-11 -11 -6 -23 9 -23 8 0 15 4 15 9 0 13 -16 22 -24 14z"/> <path d="M1506 102 c-3 -6 -1 -14 5 -17 15 -10 25 3 12 16 -7 7 -13 7 -17 1z"/> <path d="M1545 101 c-7 -12 12 -24 25 -16 11 7 4 25 -10 25 -5 0 -11 -4 -15 -9z"/> <path d="M270 66 c0 -9 7 -16 16 -16 17 0 14 22 -4 28 -7 2 -12 -3 -12 -12z"/> <path d="M2707 73 c-12 -11 -8 -23 8 -23 8 0 15 7 15 15 0 16 -12 20 -23 8z"/> <path d="M2840 68 l25 -10 -22 -11 c-13 -5 -23 -13 -23 -17 0 -10 59 1 66 12 10 15 -17 38 -45 37 l-26 0 25 -11z"/> <path d="M224 53 c2 -10 7 -17 12 -15 13 3 11 25 -3 29 -6 2 -10 -4 -9 -14z"/> <path d="M1500 60 c0 -5 7 -10 15 -10 8 0 15 5 15 10 0 6 -7 10 -15 10 -8 0 -15 -4 -15 -10z"/> <path d="M2757 63 c-11 -11 -8 -23 6 -23 8 0 14 7 14 15 0 16 -9 19 -20 8z"/> </g> </svg> 