 <svg version="1.0" xmlns="http://www.w3.org/2000/svg"  width="300.000000pt" height="36.000000pt" viewBox="0 0 300.000000 36.000000"  preserveAspectRatio="xMidYMid meet">  <g transform="translate(0.000000,36.000000) scale(0.100000,-0.100000)" fill="#000000" stroke="none"> <path d="M1112 314 c-35 -24 -46 -62 -27 -90 l15 -24 -535 0 c-350 0 -535 -3 -535 -10 0 -15 1067 -14 1072 2 2 6 15 0 30 -17 22 -23 32 -27 60 -23 29 5 35 2 48 -26 8 -17 30 -41 48 -53 29 -19 44 -21 125 -18 51 2 103 8 117 13 14 5 65 39 114 76 77 57 94 66 130 65 l41 0 -46 -15 c-26 -7 -52 -21 -59 -29 -7 -8 -16 -15 -20 -15 -4 0 -23 -14 -41 -31 -19 -18 -47 -38 -64 -45 -27 -12 -28 -13 -7 -14 29 0 91 31 116 59 11 12 23 21 28 21 4 0 17 9 28 20 11 11 28 20 38 20 13 -1 11 -4 -8 -15 -14 -8 -21 -14 -17 -15 5 0 22 8 37 17 24 14 31 14 44 4 31 -26 13 -81 -26 -81 -11 0 -18 -7 -18 -20 0 -27 12 -25 49 6 34 29 39 58 14 86 -16 17 1 18 520 18 351 0 537 3 537 10 0 7 -185 10 -535 10 -338 0 -535 -4 -535 -10 0 -5 -7 -7 -15 -4 -8 4 -15 12 -15 20 0 17 -41 28 -69 19 -15 -5 -23 1 -36 28 -21 46 -89 83 -131 73 -16 -4 -58 -8 -94 -9 -55 -2 -73 -7 -115 -34 -28 -18 -63 -44 -80 -59 -53 -46 -118 -71 -145 -54 -12 8 -10 10 8 10 31 0 89 31 132 70 19 18 53 41 75 51 38 18 39 19 12 19 -35 0 -50 -8 -133 -70 -37 -28 -72 -50 -78 -50 -6 1 0 7 14 15 14 8 20 14 14 15 -5 0 -19 -7 -30 -15 -25 -19 -48 -19 -64 1 -19 22 -1 67 30 74 14 3 25 12 25 20 0 20 -18 22 -43 4z m428 -11 c-1 -20 -19 -32 -62 -38 -41 -6 -48 -5 -48 9 0 9 10 21 23 26 27 11 87 13 87 3z m129 -19 c53 -44 56 -59 16 -83 l-35 -20 0 30 c0 32 -46 89 -72 89 -7 0 -1 -10 14 -23 14 -12 31 -32 38 -45 12 -25 5 -62 -13 -62 -16 0 -67 51 -67 69 0 10 7 8 25 -9 14 -13 25 -19 25 -13 0 6 -13 20 -30 30 -28 18 -29 20 -14 41 22 31 74 29 113 -4z m-135 -59 c8 -19 29 -43 46 -54 33 -20 28 -32 -11 -30 -13 1 -33 -2 -43 -6 -20 -9 -20 -10 0 39 3 7 -6 27 -20 44 -31 36 -32 42 -6 42 13 0 25 -12 34 -35z m-101 -11 c-5 -29 -1 -40 22 -65 l29 -29 -25 0 c-19 0 -29 9 -42 35 -9 19 -31 44 -48 54 -34 21 -24 37 16 27 13 -3 27 -2 30 4 14 22 23 8 18 -26z m60 -2 c18 -16 23 -57 7 -67 -14 -8 -60 40 -60 63 0 35 14 37 53 4z m-114 -37 c38 -43 39 -53 6 -31 -14 9 -25 13 -25 8 0 -5 11 -14 25 -20 29 -13 31 -24 9 -46 -28 -28 -82 -20 -120 18 -41 41 -42 57 -7 74 35 16 44 15 37 -2 -7 -19 21 -73 45 -86 34 -17 34 -11 2 19 -24 22 -31 38 -31 65 0 47 18 47 59 1z m141 -70 c0 -18 -39 -35 -81 -35 -46 0 -33 35 16 43 57 8 65 7 65 -8z"/> </g> </svg> 