<?xml version="1.0" standalone="no"?>
<!DOCTYPE svg PUBLIC "-//W3C//DTD SVG 20010904//EN"
 "http://www.w3.org/TR/2001/REC-SVG-20010904/DTD/svg10.dtd">
<svg version="1.0" xmlns="http://www.w3.org/2000/svg"
 width="512.000000pt" height="512.000000pt" viewBox="0 0 512.000000 512.000000"
 preserveAspectRatio="xMidYMid meet">
<metadata>
Created by potrace 1.14, written by Peter Selinger 2001-2017
</metadata>
<g transform="translate(0.000000,512.000000) scale(0.100000,-0.100000)"
fill="#000000" stroke="none">
<path d="M2373 4946 l-28 -24 -2 -278 -1 -277 28 -29 c16 -15 38 -28 50 -28
31 0 78 30 84 54 11 41 6 534 -5 559 -22 49 -83 60 -126 23z"/>
<path d="M1236 4478 c-24 -22 -30 -40 -27 -81 2 -28 382 -403 414 -409 60 -11
123 69 91 116 -14 21 -145 155 -292 299 -110 107 -137 118 -186 75z"/>
<path d="M3329 4303 c-174 -174 -199 -202 -199 -229 0 -59 70 -106 117 -80 39
21 375 361 389 393 24 56 -16 113 -80 113 -24 0 -60 -31 -227 -197z"/>
<path d="M2387 4254 c-2 -2 -26 -6 -53 -8 -251 -24 -504 -162 -662 -364 -57
-73 -56 -128 4 -160 40 -21 82 -3 128 58 113 148 320 270 502 296 57 8 202 8
258 0 68 -9 276 -85 276 -101 0 -4 -10 -2 -62 10 -87 20 -258 21 -352 0 -54
-11 -91 -22 -151 -46 -16 -7 -32 -13 -35 -14 -3 0 -25 -11 -50 -24 -190 -99
-341 -269 -416 -468 -62 -163 -76 -379 -35 -520 16 -54 2 -37 -33 40 -52 113
-70 195 -72 337 -1 69 -2 133 -3 143 -1 22 -57 57 -84 52 -65 -13 -81 -52 -81
-200 0 -138 21 -240 77 -375 32 -78 120 -221 156 -254 34 -30 27 -46 -21 -47
-83 -3 -130 -14 -203 -48 -60 -28 -80 -43 -144 -104 -89 -85 -142 -208 -144
-332 -1 -117 17 -185 77 -284 63 -103 165 -177 291 -212 64 -17 111 -21 288
-24 117 -2 215 -4 218 -4 4 -1 14 -20 23 -44 65 -171 284 -230 429 -115 42 34
82 91 93 132 3 15 13 26 23 26 1109 2 1270 8 1357 52 29 14 49 54 46 88 -4 35
23 47 62 27 14 -8 38 -12 52 -9 54 10 172 160 181 231 4 29 0 41 -20 63 -33
35 -29 60 11 70 75 20 91 110 46 264 -58 203 -180 343 -371 427 -84 38 -161
50 -271 44 -80 -4 -94 -2 -99 12 -37 105 -136 280 -193 339 -19 20 -23 38 -26
105 -15 310 -155 572 -406 760 -52 38 -204 117 -228 117 -10 0 -21 4 -24 8
-10 16 -127 39 -236 47 -41 3 -85 7 -97 9 -13 2 -24 2 -26 0z"/>
<path d="M1564 3681 c-49 -39 -52 -101 -9 -138 35 -30 76 -29 108 2 30 31 36
51 26 90 -14 52 -86 78 -125 46z"/>
<path d="M783 3360 c-45 -18 -58 -90 -22 -131 l21 -24 285 0 285 0 24 30 c30
37 26 81 -11 113 -26 22 -30 22 -293 21 -147 0 -277 -4 -289 -9z"/>
<path d="M3488 3347 c-43 -36 -42 -99 3 -126 27 -17 55 -19 301 -19 l272 0 27
28 c22 22 27 34 23 61 -3 19 -16 44 -30 57 -25 22 -29 22 -297 22 -267 0 -272
0 -299 -23z"/>
<path d="M3025 1528 c-69 -20 -84 -33 -91 -79 -10 -62 58 -114 111 -86 11 6
78 12 148 13 l128 3 -3 -41 c-3 -40 -3 -41 -46 -44 -120 -9 -229 -107 -248
-222 -6 -37 -8 -40 -25 -29 -11 7 -29 31 -40 53 -11 23 -29 50 -40 60 -48 44
-130 9 -133 -56 -4 -73 92 -191 192 -238 48 -23 71 -27 147 -27 76 0 98 4 145
26 103 48 168 122 200 229 23 75 25 383 3 417 -22 33 -43 37 -224 38 -130 1
-178 -3 -224 -17z"/>
<path d="M2835 1368 c-32 -19 -44 -41 -45 -80 0 -69 81 -102 135 -55 33 28 37
89 8 118 -23 24 -72 33 -98 17z"/>
<path d="M2210 1004 c-149 -46 -199 -116 -131 -184 34 -34 57 -33 134 8 51 26
56 27 222 27 l170 0 0 -40 0 -39 -75 -2 c-102 -3 -118 -7 -181 -37 -120 -59
-194 -174 -199 -307 l-1 -35 -24 27 c-13 15 -34 55 -46 88 -26 71 -38 82 -87
85 -28 2 -42 -3 -59 -22 -35 -37 -30 -88 17 -178 191 -371 731 -293 813 117 8
39 13 135 12 255 -1 203 -7 235 -49 250 -12 4 -116 7 -233 8 -190 0 -220 -2
-283 -21z"/>
<path d="M1973 795 c-28 -12 -42 -33 -49 -74 -5 -26 26 -71 54 -78 44 -11 66
-6 90 22 30 35 29 85 -1 114 -31 28 -55 32 -94 16z"/>
</g>
</svg>
