 <svg version="1.0" xmlns="http://www.w3.org/2000/svg"  width="144.000000pt" height="53.000000pt" viewBox="0 0 144.000000 53.000000"  preserveAspectRatio="xMidYMid meet">  <g transform="translate(0.000000,53.000000) scale(0.100000,-0.100000)" fill="#4c3a03" stroke="none"> <path d="M172 525 c3 -6 -12 -19 -34 -30 -41 -20 -88 -67 -88 -89 0 -20 40 -67 51 -60 6 4 4 13 -5 23 -9 10 -16 25 -16 34 0 18 29 57 43 57 5 0 15 7 24 15 20 20 35 15 51 -17 7 -15 35 -47 63 -72 50 -45 56 -66 20 -66 -10 0 -24 -7 -31 -15 -7 -8 -22 -15 -35 -15 -12 0 -30 -9 -39 -19 -10 -10 -33 -22 -52 -26 -19 -3 -32 -10 -29 -16 9 -13 47 -11 70 4 31 22 66 27 71 12 3 -7 21 -21 40 -30 l34 -16 -55 -52 c-30 -28 -55 -57 -55 -63 0 -6 -6 -17 -14 -23 -18 -15 -77 18 -96 54 -20 38 3 77 43 73 17 -2 35 -11 41 -20 13 -21 0 -36 -16 -20 -19 19 -48 15 -48 -7 0 -26 49 -35 73 -14 38 35 13 73 -47 73 -46 -1 -70 -15 -80 -46 -11 -37 13 -69 76 -102 59 -32 78 -33 78 -7 0 7 26 41 58 74 54 57 83 73 97 52 7 -13 95 -61 110 -61 7 0 18 -7 25 -15 7 -8 19 -15 26 -15 8 0 33 -9 57 -19 128 -58 413 -72 576 -28 48 13 116 68 109 88 -7 22 -24 20 -35 -4 -15 -31 -64 -54 -151 -69 -77 -13 -94 -8 -71 19 9 10 20 30 27 46 10 24 34 34 74 29 21 -3 153 31 200 52 70 31 89 76 51 118 -17 19 -92 58 -111 58 -7 0 -12 3 -12 8 0 4 -12 8 -27 8 -113 5 -158 14 -168 31 -5 10 -18 31 -28 46 -11 16 -15 33 -11 37 5 5 49 -1 99 -12 77 -18 95 -26 122 -56 28 -30 33 -33 39 -18 8 21 -27 61 -71 81 -16 8 -61 18 -100 23 -70 10 -301 8 -385 -3 -54 -6 -188 -52 -211 -71 -8 -8 -20 -14 -26 -14 -17 0 -103 -51 -103 -61 0 -5 -9 -9 -20 -9 -24 0 -126 96 -131 124 -2 10 -15 26 -29 35 -13 9 -21 11 -18 6z m804 -48 c9 -18 23 -40 32 -50 8 -9 13 -19 11 -21 -2 -2 -46 -6 -96 -8 -51 -1 -93 -6 -93 -10 0 -5 -10 -8 -22 -8 -35 0 -181 -30 -213 -45 -76 -33 -106 -45 -115 -45 -17 0 -110 43 -110 51 0 8 98 59 114 59 5 0 17 6 25 13 35 30 235 79 366 90 87 7 84 7 101 -26z m74 -131 c0 -8 -5 -18 -10 -21 -7 -5 -8 -11 -1 -19 5 -6 9 -37 8 -69 l-1 -58 -86 5 c-116 8 -174 16 -180 26 -3 4 -30 10 -60 13 -65 5 -168 31 -182 45 -11 11 94 40 177 49 28 3 55 9 62 15 7 5 54 12 105 15 51 3 95 7 97 9 2 2 19 4 38 4 22 0 33 -5 33 -14z m135 0 c44 -7 89 -17 100 -21 34 -14 75 -46 75 -59 0 -31 -112 -69 -235 -80 l-60 -5 0 89 c0 104 -10 98 120 76z m-833 -29 c7 -7 28 -19 46 -26 38 -16 37 -31 -4 -44 -16 -6 -33 -16 -37 -23 -4 -8 -13 -14 -19 -14 -13 0 -97 53 -98 61 0 4 13 12 30 19 16 7 35 18 41 26 14 17 24 18 41 1z m154 -76 c5 -5 33 -16 62 -26 28 -9 52 -20 52 -23 0 -4 12 -8 28 -8 34 -2 163 -27 177 -35 6 -3 52 -5 102 -5 99 1 107 -3 75 -45 -10 -13 -22 -33 -26 -43 -6 -17 -15 -18 -114 -13 -107 5 -245 34 -298 62 -16 8 -37 15 -46 15 -10 0 -18 5 -18 10 0 6 -6 10 -12 10 -17 0 -109 47 -109 56 -1 11 74 52 97 53 11 1 24 -3 30 -8z"/> <path d="M797 454 c-11 -11 3 -24 25 -24 17 0 18 2 8 15 -13 16 -23 19 -33 9z"/> <path d="M583 393 c9 -9 19 -14 23 -11 10 10 -6 28 -24 28 -15 0 -15 -1 1 -17z"/> <path d="M507 384 c-12 -12 4 -24 30 -24 21 0 24 2 13 15 -13 16 -32 20 -43 9z"/> <path d="M845 310 c-3 -6 -2 -17 3 -27 9 -15 11 -14 21 4 8 17 8 22 -4 27 -8 3 -17 1 -20 -4z"/> <path d="M900 310 c0 -13 90 -13 110 0 11 7 -3 10 -47 10 -36 0 -63 -4 -63 -10z"/> <path d="M850 245 c-11 -13 -8 -15 15 -15 23 0 26 2 15 15 -7 8 -14 15 -15 15 -1 0 -8 -7 -15 -15z"/> <path d="M919 239 c-29 -8 -29 -8 44 -16 35 -3 57 -2 57 5 0 12 -69 20 -101 11z"/> <path d="M1218 273 c-20 -5 -23 -18 -8 -28 6 -3 10 -1 10 4 0 6 9 11 21 11 11 0 17 5 14 10 -6 10 -9 11 -37 3z"/> <path d="M510 170 c-27 -17 0 -24 33 -7 30 15 31 16 7 16 -14 0 -32 -3 -40 -9z"/> <path d="M580 145 c-10 -12 -10 -15 3 -15 8 0 20 7 27 15 10 12 10 15 -3 15 -8 0 -20 -7 -27 -15z"/> <path d="M818 116 c-10 -7 -18 -21 -18 -31 0 -14 3 -15 14 -6 11 9 30 52 23 51 -1 0 -10 -7 -19 -14z"/> <path d="M397 485 c8 -25 21 -45 29 -45 15 0 19 12 7 24 -4 4 -8 13 -9 19 0 7 -2 20 -2 30 -1 10 -10 17 -21 17 -19 0 -19 -2 -4 -45z"/> <path d="M275 510 c3 -5 13 -10 21 -10 8 0 14 5 14 10 0 6 -9 10 -21 10 -11 0 -17 -4 -14 -10z"/> <path d="M453 487 c5 -15 37 -22 37 -9 0 5 -9 12 -21 15 -13 3 -19 1 -16 -6z"/> <path d="M137 423 c-20 -3 -27 -9 -25 -21 5 -25 39 -21 49 6 5 12 7 21 6 21 -1 -1 -15 -4 -30 -6z"/> <path d="M1292 421 c4 -13 18 -16 19 -4 0 4 -5 9 -11 12 -7 2 -11 -2 -8 -8z"/> <path d="M180 392 c0 -10 -5 -23 -12 -30 -17 -17 -2 -28 17 -12 17 14 21 60 5 60 -5 0 -10 -8 -10 -18z"/> <path d="M13 325 c-7 -8 -13 -16 -13 -17 0 -2 24 -4 53 -4 30 -1 62 -6 72 -11 20 -12 58 -5 49 8 -3 5 -16 9 -30 9 -15 0 -24 6 -24 16 0 14 -3 14 -15 4 -12 -10 -21 -10 -41 -1 -31 14 -36 14 -51 -4z"/> <path d="M0 226 c0 -18 33 -29 62 -20 24 7 13 17 -34 28 -21 5 -28 3 -28 -8z"/> <path d="M330 116 c0 -2 13 -6 29 -8 17 -2 28 -1 25 4 -5 8 -54 12 -54 4z"/> <path d="M413 83 c-4 -10 -13 -24 -20 -32 -10 -9 -11 -17 -3 -25 5 -7 7 -16 3 -19 -3 -4 1 -7 10 -7 13 0 17 9 17 34 0 19 5 38 10 41 13 8 13 25 0 25 -6 0 -14 -8 -17 -17z"/> <path d="M455 59 c-10 -15 1 -23 20 -15 9 3 13 10 10 16 -8 13 -22 13 -30 -1z"/> <path d="M220 29 c0 -6 4 -8 9 -4 5 3 12 1 16 -5 4 -6 11 -7 17 -4 6 4 24 7 39 6 16 0 31 3 34 8 3 5 -22 9 -55 9 -33 0 -60 -5 -60 -10z"/> </g> </svg> 