<?xml version="1.0" standalone="no"?>
<!DOCTYPE svg PUBLIC "-//W3C//DTD SVG 20010904//EN"
 "http://www.w3.org/TR/2001/REC-SVG-20010904/DTD/svg10.dtd">
<svg version="1.0" xmlns="http://www.w3.org/2000/svg"
 width="144.000000pt" height="53.000000pt" viewBox="0 0 144.000000 53.000000"
 preserveAspectRatio="xMidYMid meet">
<metadata>
Created by potrace 1.10, written by Peter Selinger 2001-2011
</metadata>
<g transform="translate(0.000000,53.000000) scale(0.050000,-0.050000)"
fill="#000000" stroke="none">
<path d="M780 1034 c0 -15 13 -44 29 -65 28 -37 30 -35 30 26 1 45 -8 65 -29
65 -16 0 -30 -12 -30 -26z"/>
<path d="M1390 1035 c-33 -11 -127 -43 -210 -70 -82 -28 -164 -63 -182 -78
-17 -15 -44 -27 -60 -27 -15 -1 -50 -18 -78 -40 -27 -22 -60 -39 -73 -40 -12
0 -33 -13 -47 -30 -47 -56 -69 -47 -224 95 -46 41 -86 75 -89 75 -26 0 7 -48
93 -136 55 -57 100 -112 100 -123 0 -12 23 -21 50 -21 28 0 50 -7 50 -15 0 -8
27 -27 60 -42 80 -35 76 -50 -30 -112 -73 -43 -97 -49 -131 -30 -38 20 -40 18
-21 -17 17 -32 11 -48 -34 -88 -81 -75 -144 -153 -144 -181 0 -14 27 4 60 39
92 98 197 172 225 158 14 -7 57 -32 95 -55 111 -67 244 -137 263 -137 10 0 56
-17 102 -38 443 -201 1355 -133 1355 101 0 50 -17 47 -62 -12 -42 -53 -104
-77 -294 -113 -153 -29 -160 -23 -108 89 41 87 44 88 158 99 251 24 506 120
506 190 0 21 -7 23 -25 9 -50 -41 -228 -89 -355 -96 -71 -5 -148 -10 -170 -13
-24 -4 -41 6 -43 24 -1 17 -3 42 -5 56 -1 15 -11 21 -23 14 -11 -7 -18 -28
-15 -46 12 -66 -138 -63 -614 13 -152 24 -308 63 -360 89 -43 23 255 112 374
114 30 0 75 9 100 20 131 55 506 55 506 -1 0 -16 9 -31 20 -34 11 -2 20 16 20
40 0 38 10 44 60 39 33 -3 118 -10 190 -16 83 -7 172 -30 245 -66 63 -30 115
-49 115 -42 0 21 -84 91 -150 126 -112 58 -129 62 -345 85 l-146 15 -40 90
c-49 112 -50 111 104 84 186 -32 252 -57 295 -111 45 -58 62 -62 62 -12 0 66
-105 136 -272 181 -103 27 -775 26 -858 -3z m580 -115 c71 -113 66 -120 -85
-123 -197 -5 -214 -7 -491 -71 -75 -17 -141 -25 -148 -18 -7 6 -27 -1 -44 -16
-90 -81 -266 -109 -371 -58 -96 46 -89 71 34 125 58 25 128 57 155 71 92 47
374 128 480 138 57 5 109 14 115 21 7 6 78 11 158 11 l146 0 51 -80z m-918
-461 c54 -23 121 -54 150 -70 29 -15 57 -23 63 -18 5 6 106 -12 224 -40 135
-32 273 -51 373 -51 180 0 187 -8 105 -128 l-52 -78 -203 13 c-251 16 -685
125 -709 178 -3 8 -19 15 -35 15 -29 0 -228 98 -228 112 0 8 184 106 202 107
7 1 57 -17 110 -40z"/>
<path d="M230 819 c-8 -12 -5 -32 6 -43 27 -27 90 -4 79 29 -11 33 -68 43 -85
14z"/>
<path d="M360 540 c0 -11 22 -20 49 -20 27 0 54 9 61 20 7 12 -13 20 -49 20
-33 0 -61 -9 -61 -20z"/>
<path d="M229 298 c-20 -31 23 -66 62 -50 27 10 29 18 9 42 -29 35 -53 38 -71
8z"/>
<path d="M806 104 c-32 -20 -25 -104 8 -104 16 0 26 24 26 60 0 66 0 66 -34
44z"/>
</g>
</svg>
